<?xml version="1.0" encoding="UTF-8"?>
<svg id="Layer_2" data-name="Layer 2" xmlns="http://www.w3.org/2000/svg" viewBox="0 0 653.38 785.4">
  <g id="Layer_1-2" data-name="Layer 1">
    <g>
      <path d="M332.87,382.34h-100.76l64.31-240.02c10.23-38.17,41.14-73.06,79.85-90.13L486.52,3.59c25.32-11.17,47.25,5.07,40.56,30.04l-66.44,247.95c-14.91,55.65-72.11,100.76-127.76,100.76Z"/>
      <path d="M178.11,583.87h-100.76c-55.65,0-88.68-45.11-73.76-100.76h0c14.91-55.65,72.11-100.76,127.76-100.76h100.76l-54,201.53Z"/>
      <path d="M506.41,785.4H224.87c-55.65,0-88.68-45.11-73.76-100.76l27-100.76h449.48c24.97,0,34.17,26.28,17.02,48.61l-103.18,134.35c-8.74,11.38-22.29,18.57-35.02,18.57Z"/>
    </g>
  </g>
</svg>